<svg width="213" height="213" xmlns="http://www.w3.org/2000/svg" xmlns:xlink="http://www.w3.org/1999/xlink" overflow="hidden"><defs><clipPath id="clip0"><rect x="1060" y="11" width="213" height="213"/></clipPath></defs><g clip-path="url(#clip0)" transform="translate(-1060 -11)"><path d="M1240.82 85.3288C1240.85 85.6114 1240.85 85.8961 1240.82 86.1787 1240.81 89.1979 1238.35 91.6365 1235.33 91.6259 1232.31 91.6153 1229.88 89.1592 1229.89 86.1401 1229.9 83.1287 1232.34 80.6929 1235.35 80.6929 1235.63 80.673 1235.91 80.673 1236.18 80.6929L1217.04 61.5506C1215.47 64.1275 1212.1 64.9413 1209.53 63.3684 1206.95 61.7955 1206.14 58.4314 1207.71 55.8544 1208.16 55.1127 1208.78 54.4893 1209.53 54.0365L1191.74 36.2463C1188.97 37.4839 1185.73 36.2453 1184.49 33.4798 1184.18 32.7881 1184.02 32.0398 1184.01 31.282 1184.01 30.4866 1184.19 29.7013 1184.53 28.9834L1166.49 11 1120.25 57.243 1120.59 57.243C1123.61 57.243 1126.06 59.6904 1126.06 62.7095 1126.06 65.7287 1123.61 68.176 1120.59 68.176 1117.58 68.176 1115.13 65.7287 1115.13 62.7095 1115.13 62.5936 1115.13 62.4777 1115.13 62.3618L1101.03 76.4627C1103.34 78.4001 1103.65 81.8477 1101.71 84.1631 1100.69 85.3804 1099.2 86.0949 1097.61 86.1208 1095.96 86.116 1094.39 85.3632 1093.36 84.0733L1079.97 97.4401C1080.07 97.8386 1080.11 98.2473 1080.11 98.657 1080.11 101.676 1077.66 104.124 1074.64 104.124 1074.27 104.132 1073.89 104.106 1073.52 104.046L1060 117.568 1092.24 149.826C1092.22 149.517 1092.22 149.207 1092.24 148.899 1092.24 145.879 1094.69 143.432 1097.71 143.432 1100.72 143.432 1103.17 145.879 1103.17 148.899 1103.17 151.918 1100.72 154.365 1097.71 154.365 1097.4 154.384 1097.09 154.384 1096.78 154.365L1116.09 173.565C1117.5 170.894 1120.81 169.87 1123.48 171.277 1126.15 172.685 1127.17 175.991 1125.77 178.662 1125.24 179.659 1124.42 180.47 1123.42 180.983L1141.13 198.696C1141.86 198.338 1142.67 198.153 1143.48 198.155 1146.5 198.084 1149.01 200.473 1149.08 203.492 1149.1 204.394 1148.9 205.288 1148.49 206.094L1166.49 224.097 1212.73 177.757 1212.46 177.757C1209.43 177.768 1206.97 175.32 1206.96 172.29 1206.95 169.261 1209.39 166.796 1212.42 166.785 1215.45 166.775 1217.92 169.222 1217.93 172.252 1217.93 172.265 1217.93 172.278 1217.93 172.29 1217.94 172.374 1217.94 172.458 1217.93 172.542L1231.91 158.518C1229.71 156.456 1229.59 152.996 1231.66 150.792 1233.72 148.587 1237.18 148.471 1239.38 150.534 1239.47 150.617 1239.56 150.703 1239.64 150.792L1253.03 137.405C1252.95 137.024 1252.91 136.636 1252.91 136.246 1252.9 133.227 1255.34 130.771 1258.36 130.761 1258.37 130.761 1258.38 130.761 1258.4 130.761 1258.79 130.759 1259.18 130.798 1259.56 130.876L1273.08 117.355ZM1074.66 126.897C1071.63 126.908 1069.17 124.461 1069.16 121.431 1069.15 118.401 1071.59 115.937 1074.62 115.926 1077.65 115.915 1080.12 118.362 1080.13 121.392 1080.13 121.399 1080.13 121.405 1080.13 121.412 1080.13 124.434 1077.68 126.887 1074.66 126.897ZM1097.63 131.591C1094.6 131.602 1092.13 129.154 1092.12 126.125 1092.11 123.095 1094.56 120.63 1097.59 120.62 1100.62 120.609 1103.08 123.057 1103.09 126.086 1103.09 126.099 1103.09 126.112 1103.09 126.125 1103.09 129.144 1100.65 131.591 1097.63 131.591ZM1097.63 108.875C1094.61 108.875 1092.16 106.428 1092.16 103.409 1092.16 100.39 1094.61 97.9423 1097.63 97.9423 1100.65 97.9423 1103.09 100.39 1103.09 103.409 1103.09 106.428 1100.65 108.875 1097.63 108.875ZM1120.59 158.982C1117.58 158.982 1115.13 156.534 1115.13 153.515 1115.13 150.496 1117.58 148.049 1120.59 148.049 1123.61 148.049 1126.06 150.496 1126.06 153.515 1126.06 156.534 1123.61 158.982 1120.59 158.982ZM1120.59 136.285C1117.58 136.285 1115.13 133.837 1115.13 130.818 1115.13 127.799 1117.58 125.352 1120.6 125.352 1123.59 125.352 1126.03 127.764 1126.06 130.761 1126.09 133.78 1123.67 136.253 1120.65 136.285 1120.63 136.285 1120.61 136.285 1120.59 136.285ZM1120.59 113.569C1117.58 113.569 1115.13 111.122 1115.13 108.103 1115.13 105.084 1117.58 102.636 1120.59 102.636 1123.61 102.636 1126.06 105.084 1126.06 108.103 1126.06 111.122 1123.61 113.569 1120.59 113.569ZM1120.59 90.8726C1117.57 90.8832 1115.1 88.4358 1115.09 85.4061 1115.08 82.3763 1117.53 79.9116 1120.56 79.901 1123.59 79.8904 1126.05 82.3379 1126.06 85.3675 1126.06 85.3804 1126.06 85.3932 1126.06 85.4061 1126.06 88.4252 1123.61 90.8726 1120.59 90.8726ZM1143.56 186.391C1140.54 186.391 1138.1 183.944 1138.1 180.924 1138.1 177.906 1140.54 175.458 1143.56 175.458 1146.58 175.459 1149.03 177.906 1149.03 180.925 1149.03 180.944 1149.03 180.964 1149.03 180.983 1149 183.979 1146.56 186.392 1143.56 186.391ZM1143.56 163.675C1140.54 163.675 1138.1 161.228 1138.1 158.209 1138.1 155.19 1140.54 152.742 1143.56 152.742 1146.58 152.742 1149.03 155.19 1149.03 158.209 1148.99 161.198 1146.55 163.599 1143.56 163.598ZM1143.56 140.979C1140.54 140.979 1138.1 138.532 1138.1 135.512 1138.1 132.493 1140.54 130.046 1143.56 130.046 1146.58 130.046 1149.03 132.493 1149.03 135.512 1149.03 138.532 1146.58 140.979 1143.56 140.979ZM1143.56 118.263C1140.54 118.263 1138.1 115.816 1138.1 112.797 1138.1 109.777 1140.54 107.33 1143.56 107.33 1146.58 107.33 1149.03 109.777 1149.03 112.797 1149.03 115.816 1146.58 118.263 1143.56 118.263ZM1143.56 95.5664C1140.54 95.566 1138.1 93.1181 1138.1 90.0992 1138.1 87.08 1140.54 84.6331 1143.56 84.6334 1146.58 84.6338 1149.03 87.0818 1149.03 90.1007 1149.03 90.1328 1149.03 90.1646 1149.03 90.1965 1148.98 93.1778 1146.54 95.5668 1143.56 95.5664ZM1143.56 72.8505C1140.54 72.8505 1138.1 70.4032 1138.1 67.3841 1138.1 64.3649 1140.54 61.9176 1143.56 61.9176 1146.58 61.9176 1149.03 64.3649 1149.03 67.3841 1149.01 70.3879 1146.57 72.8119 1143.56 72.8119ZM1143.56 50.154C1140.54 50.154 1138.1 47.7066 1138.1 44.6875 1138.1 41.6684 1140.54 39.221 1143.56 39.221 1146.58 39.221 1149.03 41.6684 1149.03 44.6875 1149.03 47.7066 1146.58 50.154 1143.56 50.154ZM1166.53 213.82C1163.51 213.799 1161.08 211.334 1161.1 208.315 1161.12 205.296 1163.59 202.866 1166.61 202.888 1169.6 202.909 1172.01 205.327 1172.03 208.315 1172.06 211.334 1169.63 213.799 1166.61 213.82 1166.58 213.82 1166.55 213.82 1166.53 213.82ZM1166.53 191.124C1163.51 191.102 1161.08 188.638 1161.1 185.619 1161.12 182.6 1163.59 180.17 1166.61 180.191 1169.6 180.212 1172.01 182.63 1172.03 185.619 1172.03 188.638 1169.59 191.085 1166.57 191.085 1166.55 191.085 1166.54 191.085 1166.53 191.085ZM1166.53 168.408C1163.51 168.386 1161.08 165.922 1161.1 162.903 1161.12 159.884 1163.59 157.454 1166.61 157.475 1169.6 157.496 1172.01 159.914 1172.03 162.903 1172.03 165.922 1169.59 168.369 1166.57 168.369 1166.55 168.369 1166.54 168.369 1166.53 168.369ZM1166.53 145.711C1163.51 145.69 1161.08 143.225 1161.1 140.206 1161.12 137.187 1163.59 134.757 1166.61 134.779 1169.6 134.8 1172.01 137.217 1172.03 140.206 1172.03 143.225 1169.59 145.673 1166.57 145.673 1166.55 145.673 1166.54 145.673 1166.53 145.673ZM1166.53 122.995C1163.51 122.974 1161.08 120.509 1161.1 117.49 1161.12 114.471 1163.59 112.041 1166.61 112.063 1169.6 112.084 1172.01 114.502 1172.03 117.49 1172.08 120.509 1169.66 122.991 1166.65 123.034 1166.61 123.034 1166.57 123.034 1166.53 123.034ZM1166.53 100.299C1163.51 100.277 1161.08 97.8127 1161.1 94.7938 1161.12 91.7748 1163.59 89.3449 1166.61 89.3661 1169.6 89.3874 1172.01 91.805 1172.03 94.7938 1172.03 97.8129 1169.59 100.26 1166.57 100.26 1166.55 100.26 1166.54 100.26 1166.53 100.26ZM1166.53 77.583C1163.51 77.5616 1161.08 75.0968 1161.1 72.0779 1161.12 69.059 1163.59 66.629 1166.61 66.6502 1169.6 66.6715 1172.01 69.0891 1172.03 72.0779 1172.03 75.097 1169.59 77.5444 1166.57 77.5446 1166.55 77.5446 1166.54 77.5446 1166.53 77.5444ZM1166.53 54.8865C1163.51 54.865 1161.08 52.4003 1161.1 49.3813 1161.12 46.3624 1163.59 43.9324 1166.61 43.9537 1169.6 43.9749 1172.01 46.3925 1172.03 49.3813 1172.03 52.4005 1169.59 54.8478 1166.57 54.848 1166.55 54.848 1166.54 54.8478 1166.53 54.8478ZM1166.53 32.1706C1163.51 32.1491 1161.08 29.6844 1161.1 26.6655 1161.12 23.6465 1163.59 21.2165 1166.61 21.2379 1169.6 21.2591 1172.01 23.6767 1172.03 26.6655 1172.03 29.6845 1169.59 32.132 1166.57 32.1321 1166.55 32.1321 1166.54 32.132 1166.53 32.132ZM1189.42 195.779C1186.4 195.779 1183.95 193.332 1183.95 190.313 1183.95 187.293 1186.4 184.846 1189.42 184.846 1192.44 184.846 1194.89 187.293 1194.89 190.313 1194.89 193.332 1192.44 195.779 1189.42 195.779ZM1189.42 173.082C1186.39 173.093 1183.92 170.646 1183.91 167.616 1183.9 164.586 1186.35 162.122 1189.38 162.111 1192.41 162.1 1194.87 164.548 1194.89 167.577 1194.89 167.584 1194.89 167.59 1194.89 167.597 1194.89 170.619 1192.44 173.072 1189.42 173.082ZM1189.42 150.367C1186.4 150.367 1183.95 147.919 1183.95 144.9 1183.95 141.881 1186.4 139.434 1189.42 139.434 1192.44 139.434 1194.89 141.881 1194.89 144.9 1194.89 147.919 1192.44 150.367 1189.42 150.367ZM1189.42 127.67C1186.39 127.681 1183.92 125.233 1183.91 122.203 1183.9 119.174 1186.35 116.709 1189.38 116.698 1192.41 116.688 1194.87 119.135 1194.89 122.165 1194.89 122.171 1194.89 122.178 1194.89 122.184 1194.89 125.206 1192.44 127.659 1189.42 127.67ZM1189.42 104.954C1186.4 104.954 1183.95 102.507 1183.95 99.4876 1183.95 96.4685 1186.4 94.0211 1189.42 94.0211 1192.44 94.0211 1194.89 96.4685 1194.89 99.4876 1194.89 102.507 1192.44 104.954 1189.42 104.954ZM1189.42 82.2382C1186.4 82.2382 1183.95 79.7909 1183.95 76.7717 1183.95 73.7526 1186.4 71.3053 1189.42 71.3053 1192.44 71.3053 1194.89 73.7526 1194.89 76.7717 1194.89 79.7909 1192.44 82.2382 1189.42 82.2382ZM1189.42 59.5417C1186.4 59.5417 1183.95 57.0943 1183.95 54.0752 1183.95 51.0561 1186.4 48.6087 1189.42 48.6087 1192.44 48.6087 1194.89 51.0561 1194.89 54.0752 1194.89 57.0943 1192.44 59.5417 1189.42 59.5417ZM1212.46 155.06C1209.44 155.06 1207 152.613 1207 149.594 1207 146.575 1209.44 144.127 1212.46 144.127 1215.48 144.127 1217.93 146.575 1217.93 149.594 1217.93 152.613 1215.48 155.06 1212.46 155.06ZM1212.46 132.364C1209.43 132.374 1206.97 129.927 1206.96 126.897 1206.95 123.868 1209.39 121.403 1212.42 121.392 1215.45 121.382 1217.92 123.829 1217.93 126.859 1217.93 126.872 1217.93 126.884 1217.93 126.897 1217.93 129.916 1215.48 132.364 1212.46 132.364ZM1212.46 109.648C1209.44 109.648 1207 107.201 1207 104.181 1207 101.162 1209.44 98.715 1212.46 98.715 1215.48 98.715 1217.93 101.162 1217.93 104.181 1217.93 107.201 1215.48 109.648 1212.46 109.648ZM1212.46 86.9514C1209.43 86.962 1206.97 84.5146 1206.96 81.4849 1206.95 78.4552 1209.39 75.9906 1212.42 75.9798 1215.45 75.9691 1217.92 78.4165 1217.93 81.4463 1217.93 81.4526 1217.93 81.4592 1217.93 81.4656 1217.93 84.4878 1215.49 86.9408 1212.46 86.9514ZM1235.43 137.058C1232.41 137.058 1229.96 134.61 1229.96 131.591 1229.96 128.572 1232.41 126.125 1235.43 126.125 1238.45 126.125 1240.9 128.572 1240.9 131.591 1240.9 134.61 1238.45 137.058 1235.43 137.058ZM1235.43 114.342C1232.41 114.342 1229.96 111.894 1229.96 108.875 1229.96 105.856 1232.41 103.409 1235.43 103.409 1238.45 103.409 1240.9 105.856 1240.9 108.875 1240.9 111.894 1238.45 114.342 1235.43 114.342ZM1258.4 119.036C1255.38 119.036 1252.93 116.588 1252.93 113.569 1252.93 110.55 1255.38 108.103 1258.4 108.103 1261.42 108.103 1263.86 110.55 1263.86 113.569 1263.86 116.588 1261.42 119.036 1258.4 119.036Z" fill="#000B8C"/></g></svg>