<svg version="1.1" id="Layer_1" xmlns="http://www.w3.org/2000/svg" xmlns:xlink="http://www.w3.org/1999/xlink" x="0px" y="0px" viewBox="0 0 1200 300" style="enable-background:new 0 0 1200 300;" xml:space="preserve" width="1200"  height="300" >
<style type="text/css">
	.st0{fill:none;stroke:#000000;stroke-width:2;stroke-miterlimit:10;}
</style>
<g>
	<path d="M127,128.9h10.3v1.9h-8.2v7.7h7.8v1.9h-7.8v10.2H127V128.9z"/>
	<path d="M162,128.5c6.5,0,9.6,5.3,9.5,11.2c-0.1,6.6-3.3,11.2-9.5,11.2c-6.2,0-9.5-4.6-9.5-11.2C152.4,133.8,155.5,128.5,162,128.5   z M154.6,139.7c0,4.6,2.3,9.3,7.4,9.3s7.4-4.8,7.4-9.3c0-4.6-2.3-9.3-7.4-9.3S154.6,135.1,154.6,139.7z"/>
	<path d="M188,128.9h2.7l11,19.1h0.1v-19.1h2.1v21.7h-2.9l-10.8-18.7h-0.1v18.7H188V128.9z"/>
	<path d="M225.5,130.7h-6.4v-1.9H234v1.9h-6.4v19.8h-2.1V130.7z"/>
	<path d="M255.1,141.3l-8-12.5h2.5l6.6,10.6l6.8-10.6h2.3l-8,12.5v9.2h-2.1V141.3z"/>
	<path d="M280.2,147.8c1.3,0.8,2.8,1.3,4.8,1.3c2.7,0,4.9-1.4,4.9-4.4c0-4.3-9.9-4.8-9.9-10.5c0-3.5,3-5.7,6.9-5.7   c1.1,0,2.8,0.2,4.3,0.7l-0.3,2c-1-0.5-2.5-0.8-3.9-0.8c-2.2,0-4.7,0.9-4.7,3.7c0,4.3,9.9,4.4,9.9,10.7c0,4.4-3.8,6.1-7.1,6.1   c-2.1,0-3.8-0.4-4.9-0.9L280.2,147.8z"/>
	<path d="M228,173.2h2.1v21.7H228V173.2z"/>
	<path d="M262.5,175.7c-1.4-0.7-3.3-0.9-4.8-0.9c-5.6,0-8.8,4-8.8,9.3c0,5.5,3.1,9.3,8.8,9.3c1.4,0,3.6-0.2,4.8-0.9l0.1,1.9   c-1.2,0.7-3.6,0.9-5,0.9c-6.8,0-10.9-4.5-10.9-11.2c0-6.6,4.2-11.2,10.9-11.2c1.3,0,3.9,0.2,5,0.8L262.5,175.7z"/>
	<path d="M284.8,175.1h-6.4v-1.9h14.9v1.9H287v19.8h-2.1V175.1z"/>
	<line class="st0" x1="315.9" y1="86.8" x2="315.9" y2="226.1"/>
	<g>
		<path d="M340.9,128.3h17.7v66.5h-17.7V128.3z"/>
		<path d="M371,145.2h15.6v9.1h0.2c3.4-7.1,10.3-10.3,18.1-10.3c13.5,0,18.9,9.5,18.9,19.8v30.9h-17.1v-24c0-9.3-3.2-12.5-7.9-12.5    c-7,0-10.7,4.9-10.7,15.5v20.9H371V145.2z"/>
		<path d="M434.5,145.2h15.6v9.1h0.2c3.4-7.1,10.3-10.3,18.1-10.3c13.5,0,18.9,9.5,18.9,19.8v30.9h-17.1v-24    c0-9.3-3.2-12.5-7.9-12.5c-7,0-10.7,4.9-10.7,15.5v20.9h-17.1V145.2z"/>
		<path d="M495.6,170c0-16.5,12.5-26,28.8-26c16.4,0,28.8,9.5,28.8,26c0,16.4-12.5,25.9-28.8,25.9    C508.1,195.9,495.6,186.4,495.6,170z M535.6,170c0-7.4-3.2-14-11.1-14s-11.1,6.6-11.1,14c0,7.3,3.2,13.9,11.1,13.9    S535.6,177.3,535.6,170z"/>
		<path d="M557.2,145.2h18.4l10.3,35.3h0.2l10.4-35.3h17l-18.4,49.6h-19.5L557.2,145.2z"/>
		<path d="M652.2,194.8c-0.1-2.7-0.4-5.2-0.4-7.8h-0.2c-3.9,6.2-8.7,8.9-15.7,8.9c-9.8,0-18.6-4.9-18.6-15.6    c0-15.1,16.5-16.9,25.6-16.9c2.8,0,5.8,0.3,8,0.7c-0.1-6.8-5.1-8.6-11.3-8.6c-5.5,0-11,1-15.8,3.7l-0.3-11.6    c6.1-2.5,12.5-3.5,19.8-3.5c12.7,0,23.6,5.4,23.6,20.6v18.5c0,3.9,0.2,7.8,1,11.7H652.2z M640.4,184.5c6.5,0,10.6-5.9,10.6-11.7    c-2.2-0.1-4.7-0.3-7.2-0.3c-5.8,0-10.4,1.8-10.4,6.6C633.4,182.5,636.4,184.5,640.4,184.5z"/>
		<path d="M673.6,145.2h10.1V134l16.9-5.2v16.4h12v12h-12v18.3c0,6,1.4,9,6.9,9c1.7,0,3.5-0.4,5.2-0.7l0.6,11.1    c-3.2,0.4-6.5,1-10.8,1c-15.3,0-19-6.8-19-18.6v-20.2h-9.8V145.2z"/>
		<path d="M739.3,137.1h-17.1v-12.6h17.1V137.1z M722.2,145.2h17.1v49.6h-17.1V145.2z"/>
		<path d="M749.6,170c0-16.5,12.5-26,28.8-26c16.4,0,28.8,9.5,28.8,26c0,16.4-12.5,25.9-28.8,25.9    C762.1,195.9,749.6,186.4,749.6,170z M789.6,170c0-7.4-3.2-14-11.1-14c-7.9,0-11.1,6.6-11.1,14c0,7.3,3.2,13.9,11.1,13.9    C786.4,183.9,789.6,177.3,789.6,170z"/>
		<path d="M815.6,145.2h15.6v9.1h0.2c3.4-7.1,10.3-10.3,18.1-10.3c13.5,0,18.9,9.5,18.9,19.8v30.9h-17.1v-24    c0-9.3-3.2-12.5-7.9-12.5c-7,0-10.7,4.9-10.7,15.5v20.9h-17.1V145.2z"/>
	</g>
	<g>
		<circle cx="884.9" cy="113.2" r="0.6"/>
		<circle cx="901.9" cy="113.2" r="0.6"/>
		<circle cx="935.5" cy="155.4" r="0.6"/>
		<circle cx="952.4" cy="130.1" r="0.6"/>
		<circle cx="935.5" cy="164" r="1"/>
		<circle cx="927.3" cy="172.4" r="1"/>
		<circle cx="918.9" cy="172.3" r="1"/>
		<circle cx="876.3" cy="181" r="1.3"/>
		<circle cx="876.3" cy="172.4" r="1.3"/>
		<circle cx="876.4" cy="164.1" r="1.3"/>
		<circle cx="876.3" cy="155.4" r="1.3"/>
		<circle cx="876.4" cy="147.2" r="1.3"/>
		<circle cx="876.3" cy="138.5" r="1.3"/>
		<circle cx="876.3" cy="130.2" r="1.1"/>
		<circle cx="910.3" cy="121.8" r="1"/>
		<circle cx="876.4" cy="121.9" r="0.7"/>
		<circle cx="893.3" cy="113.2" r="0.7"/>
		<circle cx="918.8" cy="164.1" r="0.7"/>
		<circle cx="935.5" cy="147" r="0.7"/>
		<circle cx="944.1" cy="130.2" r="0.3"/>
		<circle cx="986.4" cy="130.1" r="0.3"/>
		<circle cx="927.1" cy="164.1" r="0.3"/>
		<circle cx="1037.2" cy="121.8" r="0.4"/>
		<circle cx="1054.2" cy="130.2" r="0.4"/>
		<circle cx="1062.5" cy="130.2" r="0.4"/>
		<circle cx="1071.1" cy="138.5" r="0.4"/>
		<circle cx="961.1" cy="130.2" r="0.8"/>
		<circle cx="969.4" cy="130.1" r="0.8"/>
		<circle cx="978" cy="130.2" r="0.8"/>
		<circle cx="995.1" cy="130.1" r="1"/>
		<circle cx="995.1" cy="138.5" r="1"/>
		<circle cx="995" cy="121.9" r="0.8"/>
		<circle cx="1028.9" cy="113.2" r="0.9"/>
		<circle cx="1003.3" cy="113.2" r="1.1"/>
		<circle cx="1037.3" cy="130.2" r="0.9"/>
		<circle cx="1045.5" cy="130.2" r="0.7"/>
		<circle cx="876.2" cy="189.3" r="1.3"/>
		<circle cx="885" cy="121.8" r="1.8"/>
		<circle cx="901.9" cy="121.8" r="2"/>
		<circle cx="893.3" cy="121.8" r="2.7"/>
		<circle cx="885" cy="130.1" r="3.1"/>
		<circle cx="885" cy="189.3" r="2.9"/>
		<circle cx="910.2" cy="198" r="3"/>
		<circle cx="902" cy="198" r="3"/>
		<circle cx="884.9" cy="138.3" r="3.4"/>
		<circle cx="885" cy="147.1" r="3.4"/>
		<circle cx="885" cy="155.4" r="3.4"/>
		<circle cx="885" cy="164" r="3.4"/>
		<circle cx="885" cy="172.3" r="3.4"/>
		<circle cx="885" cy="180.9" r="3.4"/>
		<circle cx="910.3" cy="181" r="3.4"/>
		<circle cx="893.2" cy="130.1" r="4.1"/>
		<circle cx="893.2" cy="138.4" r="4.6"/>
		<circle cx="893.3" cy="147.1" r="4.6"/>
		<circle cx="893.3" cy="155.4" r="4.6"/>
		<circle cx="893.3" cy="164" r="4.6"/>
		<circle cx="893.3" cy="172.3" r="4.6"/>
		<circle cx="893.2" cy="181" r="4.7"/>
		<circle cx="893.2" cy="189.3" r="4.2"/>
		<circle cx="901.9" cy="181.1" r="4.2"/>
		<circle cx="901.9" cy="189.4" r="4.4"/>
		<ellipse transform="matrix(0.7151 -0.699 0.699 0.7151 127.0163 690.1799)" cx="910.2" cy="189.3" rx="4.3" ry="4.3"/>
		<ellipse transform="matrix(0.6955 -0.7186 0.7186 0.6955 143.7485 717.9645)" cx="918.9" cy="189.4" rx="4.2" ry="4.2"/>
		<ellipse transform="matrix(0.6742 -0.7385 0.7385 0.6742 162.2963 746.4519)" cx="927.3" cy="189.3" rx="3.9" ry="3.9"/>
		<circle cx="902" cy="172.4" r="3.9"/>
		<circle cx="902" cy="164.1" r="3.9"/>
		<circle cx="902" cy="155.4" r="3.9"/>
		<circle cx="902" cy="147.1" r="3.9"/>
		<circle cx="901.9" cy="138.5" r="3.9"/>
		<circle cx="901.9" cy="130.2" r="3.6"/>
		<circle cx="893.2" cy="197.9" r="2.7"/>
		<circle cx="885" cy="197.9" r="1.7"/>
		<circle cx="910.3" cy="172.4" r="2.1"/>
		<circle cx="910.3" cy="164.1" r="1.9"/>
		<circle cx="910.2" cy="155.4" r="1.9"/>
		<circle cx="910.2" cy="147.1" r="1.9"/>
		<circle cx="910.3" cy="138.5" r="1.9"/>
		<circle cx="910.3" cy="130.2" r="1.7"/>
		<circle cx="918.9" cy="181" r="3.1"/>
		<circle cx="918.8" cy="198" r="3"/>
		<circle cx="927.2" cy="181" r="2.9"/>
		<circle cx="927.2" cy="198" r="2.8"/>
		<circle cx="935.5" cy="172.4" r="1.8"/>
		<circle cx="935.4" cy="198" r="2.1"/>
		<circle cx="944.2" cy="198" r="2.1"/>
		<circle cx="935.6" cy="181" r="2.5"/>
		<circle cx="935.6" cy="189.4" r="3.1"/>
		<circle cx="944.1" cy="138.5" r="1.3"/>
		<circle cx="986.4" cy="138.5" r="1.6"/>
		<circle cx="995" cy="147.1" r="1.9"/>
		<ellipse transform="matrix(0.7623 -0.6472 0.6472 0.7623 165.7494 694.9447)" cx="1029" cy="121.8" rx="1.9" ry="1.9"/>
		<circle cx="944.2" cy="147.1" r="2.2"/>
		<circle cx="952.3" cy="155.5" r="3.3"/>
		<circle cx="952.5" cy="164.1" r="3.3"/>
		<circle cx="986.4" cy="147.1" r="3.2"/>
		<circle cx="961.1" cy="138.5" r="2.7"/>
		<circle cx="952.4" cy="138.4" r="2.1"/>
		<circle cx="978.1" cy="138.6" r="2.3"/>
		<circle cx="969.5" cy="138.4" r="2.7"/>
		<circle cx="944.1" cy="155.4" r="2.2"/>
		<circle cx="944.2" cy="164.1" r="2.3"/>
		<circle cx="944.1" cy="172.3" r="3.4"/>
		<circle cx="944.1" cy="189.5" r="3.7"/>
		<circle cx="944.3" cy="181.2" r="4.1"/>
		<circle cx="952.5" cy="189.4" r="4.2"/>
		<circle cx="986.4" cy="189.4" r="4.2"/>
		<circle cx="978.3" cy="189.4" r="4.3"/>
		<circle cx="969.5" cy="189.4" r="4.2"/>
		<circle cx="961.1" cy="189.2" r="4.4"/>
		<circle cx="952.5" cy="197.9" r="2.9"/>
		<ellipse transform="matrix(0.5915 -0.8063 0.8063 0.5915 233.0162 855.7697)" cx="961" cy="197.9" rx="3.2" ry="3.2"/>
		<ellipse transform="matrix(0.216 -0.9764 0.9764 0.216 566.8451 1101.7004)" cx="969.4" cy="197.9" rx="2.7" ry="2.7"/>
		<ellipse transform="matrix(0.216 -0.9764 0.9764 0.216 573.4477 1110.054)" cx="977.9" cy="197.9" rx="2.7" ry="2.7"/>
		<ellipse transform="matrix(0.2523 -0.9676 0.9676 0.2523 545.9244 1102.4772)" cx="986.4" cy="198" rx="2.5" ry="2.5"/>
		<ellipse transform="matrix(0.2523 -0.9676 0.9676 0.2523 571.2739 1135.2235)" cx="1020.2" cy="197.9" rx="2.5" ry="2.5"/>
		<ellipse transform="matrix(0.2523 -0.9676 0.9676 0.2523 577.6409 1143.6475)" cx="1028.9" cy="198" rx="2.5" ry="2.5"/>
		<ellipse transform="matrix(0.2523 -0.9676 0.9676 0.2523 611.215 1169.7078)" cx="1062.5" cy="189.3" rx="2.5" ry="2.5"/>
		<ellipse transform="matrix(0.252 -0.9677 0.9677 0.252 565.4064 1127.3729)" cx="1011.9" cy="198" rx="2.8" ry="2.8"/>
		<ellipse transform="matrix(0.2523 -0.9676 0.9676 0.2523 560.7111 1104.3154)" cx="995" cy="189.3" rx="2.5" ry="2.5"/>
		<circle cx="1062.5" cy="198.1" r="1.3"/>
		<circle cx="1071.2" cy="189.4" r="1"/>
		<circle cx="1012" cy="113.2" r="1.7"/>
		<circle cx="1020.3" cy="113.2" r="1.6"/>
		<circle cx="952.4" cy="147" r="3.6"/>
		<circle cx="961.2" cy="155.5" r="3.6"/>
		<circle cx="961.1" cy="164.1" r="3.6"/>
		<circle cx="969.3" cy="155.6" r="3.8"/>
		<circle cx="969.4" cy="164.1" r="3.8"/>
		<circle cx="952.3" cy="172.3" r="4.3"/>
		<circle cx="969.5" cy="172.2" r="4.4"/>
		<circle cx="961" cy="172.3" r="4.4"/>
		<circle cx="961.1" cy="181" r="4.6"/>
		<circle cx="952.4" cy="181.2" r="4.7"/>
		<circle cx="969.5" cy="181" r="4.5"/>
		<circle cx="961" cy="147.1" r="4"/>
		<circle cx="969.4" cy="147" r="4"/>
		<circle cx="978.1" cy="147.1" r="4"/>
		<circle cx="978" cy="155.4" r="4.4"/>
		<circle cx="978.1" cy="164.1" r="4.4"/>
		<circle cx="986.4" cy="155.4" r="4.2"/>
		<circle cx="986.4" cy="164" r="4.4"/>
		<circle cx="986.4" cy="172.3" r="4.4"/>
		<circle cx="986.5" cy="181.1" r="4.6"/>
		<circle cx="978" cy="181.1" r="4.7"/>
		<circle cx="978.1" cy="172.3" r="4.7"/>
		<circle cx="995" cy="197.9" r="1.8"/>
		<circle cx="1003.3" cy="198" r="1.9"/>
		<circle cx="1003.3" cy="189.4" r="2.9"/>
		<circle cx="1003.4" cy="181" r="2.9"/>
		<circle cx="1003.3" cy="172.4" r="2.9"/>
		<circle cx="1003.3" cy="164" r="2.9"/>
		<circle cx="995" cy="181.1" r="3.2"/>
		<circle cx="995" cy="172.4" r="3.2"/>
		<circle cx="995" cy="164.1" r="3.2"/>
		<circle cx="995" cy="155.4" r="2.7"/>
		<circle cx="1003.3" cy="155.4" r="3"/>
		<circle cx="1003.3" cy="147.1" r="2.9"/>
		<circle cx="1003.3" cy="138.5" r="2.9"/>
		<circle cx="1003.4" cy="130.1" r="2.8"/>
		<circle cx="1003.4" cy="121.8" r="2.3"/>
		<circle cx="1012" cy="121.8" r="3.4"/>
		<circle cx="1020.3" cy="121.7" r="3.4"/>
		<circle cx="1011.9" cy="130.2" r="4.2"/>
		<ellipse transform="matrix(0.2401 -0.9707 0.9707 0.2401 634.5073 1087.629)" cx="1012" cy="138.5" rx="4.4" ry="4.4"/>
		<ellipse transform="matrix(0.2401 -0.9707 0.9707 0.2401 626.1772 1093.947)" cx="1011.8" cy="147" rx="4.4" ry="4.4"/>
		<ellipse transform="matrix(0.2401 -0.9707 0.9707 0.2401 618.212 1100.5369)" cx="1012.1" cy="155.4" rx="4.4" ry="4.4"/>
		<ellipse transform="matrix(0.2401 -0.9707 0.9707 0.2401 609.8546 1107.079)" cx="1012.1" cy="164" rx="4.4" ry="4.4"/>
		<ellipse transform="matrix(0.2401 -0.9707 0.9707 0.2401 601.724 1113.3928)" cx="1012" cy="172.4" rx="4.4" ry="4.4"/>
		<ellipse transform="matrix(0.2401 -0.9707 0.9707 0.2401 593.2479 1119.9773)" cx="1012" cy="181.1" rx="4.4" ry="4.4"/>
		<ellipse transform="matrix(0.1687 -0.9857 0.9857 0.1687 654.6128 1154.7675)" cx="1011.9" cy="189.3" rx="4" ry="4"/>
		<ellipse transform="matrix(0.965 -0.2622 0.2622 0.965 -13.9675 274.1324)" cx="1020.1" cy="189.4" rx="4.2" ry="4.2"/>
		<ellipse transform="matrix(0.3565 -0.9343 0.9343 0.3565 485.278 1083.1361)" cx="1028.9" cy="189.3" rx="4" ry="4"/>
		<ellipse transform="matrix(0.4748 -0.8801 0.8801 0.4748 387.0071 1027.158)" cx="1054.1" cy="189.3" rx="3.8" ry="3.8"/>
		<ellipse transform="matrix(0.5403 -0.8415 0.8415 0.5403 317.4466 959.7863)" cx="1037.1" cy="189.4" rx="4.3" ry="4.3"/>
		<ellipse transform="matrix(0.5403 -0.8415 0.8415 0.5403 321.3035 966.8461)" cx="1045.5" cy="189.4" rx="4.3" ry="4.3"/>
		<ellipse transform="matrix(0.2401 -0.9707 0.9707 0.2401 632.4844 1102.1337)" cx="1020.2" cy="147.1" rx="4.4" ry="4.4"/>
		<ellipse transform="matrix(0.8478 -0.5303 0.5303 0.8478 72.8223 564.6841)" cx="1020.2" cy="155.5" rx="4.8" ry="4.8"/>
		<ellipse transform="matrix(0.7886 -0.6149 0.6149 0.7886 114.7796 661.9788)" cx="1020.2" cy="164.1" rx="4.7" ry="4.7"/>
		<ellipse transform="matrix(0.7886 -0.6149 0.6149 0.7886 109.6394 663.8572)" cx="1020.3" cy="172.5" rx="4.7" ry="4.7"/>
		<ellipse transform="matrix(0.7886 -0.6149 0.6149 0.7886 104.4127 665.743)" cx="1020.4" cy="181" rx="4.7" ry="4.7"/>
		<ellipse transform="matrix(0.9524 -0.3048 0.3048 0.9524 6.298 317.5298)" cx="1020.2" cy="138.6" rx="4.1" ry="4.1"/>
		
			<ellipse transform="matrix(3.566748e-02 -0.9994 0.9994 3.566748e-02 845.2901 1169.984)" cx="1028.9" cy="147" rx="4.1" ry="4.1"/>
		
			<ellipse transform="matrix(3.566744e-02 -0.9994 0.9994 3.566744e-02 853.2125 1178.3938)" cx="1037.2" cy="147.1" rx="4.1" ry="4.1"/>
		<ellipse transform="matrix(0.1122 -0.9937 0.9937 0.1122 789.7648 1178.0802)" cx="1054.2" cy="147.1" rx="3.4" ry="3.4"/>
		
			<ellipse transform="matrix(3.566744e-02 -0.9994 0.9994 3.566744e-02 861.2643 1186.8712)" cx="1045.6" cy="147.2" rx="4.1" ry="4.1"/>
		
			<ellipse transform="matrix(5.490577e-02 -0.9985 0.9985 5.490577e-02 841.1849 1199.4237)" cx="1054.2" cy="155.4" rx="4.4" ry="4.4"/>
		<ellipse transform="matrix(0.2996 -0.9541 0.9541 0.2996 584.1655 1106.4615)" cx="1045.6" cy="155.4" rx="4.7" ry="4.7"/>
		<ellipse transform="matrix(0.2996 -0.9541 0.9541 0.2996 578.1799 1098.6412)" cx="1037.3" cy="155.5" rx="4.7" ry="4.7"/>
		<ellipse transform="matrix(0.2996 -0.9541 0.9541 0.2996 572.2217 1090.459)" cx="1028.8" cy="155.5" rx="4.7" ry="4.7"/>
		<ellipse transform="matrix(0.9747 -0.2237 0.2237 0.9747 -10.604 234.3079)" cx="1028.9" cy="164" rx="4.4" ry="4.4"/>
		<ellipse transform="matrix(0.9747 -0.2237 0.2237 0.9747 -10.4189 236.1415)" cx="1037.1" cy="164.1" rx="4.4" ry="4.4"/>
		<ellipse transform="matrix(0.9747 -0.2237 0.2237 0.9747 -10.2138 238.018)" cx="1045.5" cy="164.1" rx="4.4" ry="4.4"/>
		<ellipse transform="matrix(0.9747 -0.2237 0.2237 0.9747 -13.7807 240.4047)" cx="1054.2" cy="181" rx="4.4" ry="4.4"/>
		<ellipse transform="matrix(0.9747 -0.2237 0.2237 0.9747 -12.0539 238.2792)" cx="1045.7" cy="172.3" rx="4.4" ry="4.4"/>
		<ellipse transform="matrix(0.9747 -0.2237 0.2237 0.9747 -12.2755 236.3893)" cx="1037.3" cy="172.4" rx="4.4" ry="4.4"/>
		<ellipse transform="matrix(0.9747 -0.2237 0.2237 0.9747 -12.5028 234.5155)" cx="1028.9" cy="172.4" rx="4.4" ry="4.4"/>
		<ellipse transform="matrix(0.9747 -0.2237 0.2237 0.9747 -14.4373 234.7421)" cx="1028.9" cy="181.1" rx="4.4" ry="4.4"/>
		<ellipse transform="matrix(0.9747 -0.2237 0.2237 0.9747 -14.2216 236.5798)" cx="1037.1" cy="181.1" rx="4.4" ry="4.4"/>
		<ellipse transform="matrix(0.9747 -0.2237 0.2237 0.9747 -14.0025 238.4471)" cx="1045.5" cy="181" rx="4.4" ry="4.4"/>
		<ellipse transform="matrix(0.8179 -0.5753 0.5753 0.8179 97.5874 636.4166)" cx="1054.3" cy="164" rx="4.6" ry="4.6"/>
		<ellipse transform="matrix(0.8179 -0.5753 0.5753 0.8179 92.7198 637.8728)" cx="1054.2" cy="172.4" rx="4.6" ry="4.6"/>
		<ellipse transform="matrix(0.6815 -0.7318 0.7318 0.6815 229.6857 788.0914)" cx="1020.2" cy="130.2" rx="4" ry="4"/>
		<circle cx="1037.1" cy="197.9" r="3.1"/>
		<circle cx="1045.5" cy="198" r="3.1"/>
		<circle cx="1054.1" cy="198" r="2.3"/>
		<circle cx="1071.2" cy="181.1" r="1.5"/>
		<circle cx="1071.1" cy="172.3" r="1.9"/>
		<circle cx="1045.6" cy="138.5" r="2.5"/>
		<circle cx="1037.2" cy="138.4" r="2.5"/>
		<ellipse transform="matrix(0.2287 -0.9735 0.9735 0.2287 666.8945 1101.9586)" cx="1028.9" cy="130.1" rx="2.2" ry="2.2"/>
		<ellipse transform="matrix(0.2287 -0.9735 0.9735 0.2287 676.2289 1147.7888)" cx="1062.5" cy="147.1" rx="2.2" ry="2.2"/>
		<circle cx="1028.8" cy="138.6" r="2.8"/>
		<circle cx="1071.2" cy="164.1" r="1.8"/>
		<circle cx="1054.2" cy="138.5" r="1.8"/>
		<circle cx="1071.2" cy="155.4" r="1.3"/>
		<circle cx="1071.1" cy="147" r="0.8"/>
		<circle cx="1062.6" cy="138.5" r="0.8"/>
		<circle cx="1062.5" cy="172.3" r="3.7"/>
		<circle cx="1062.5" cy="164" r="3.8"/>
		<circle cx="1062.4" cy="155.3" r="3.4"/>
		<circle cx="1062.5" cy="181" r="3.4"/>
	</g>
</g>
</svg>